<svg id="Layer_1" data-name="Layer 1" xmlns="http://www.w3.org/2000/svg" viewBox="0 0 45 17"><title>masthead-vogue</title><path d="M0,3H3.93v.11H3l2.93,8,2.48-8h-1V3H9.53v.11H8.59L5.1,14.22,1,3.11H0ZM13.12,14.33A4.48,4.48,0,0,1,9.76,12.6,6.47,6.47,0,0,1,8.39,8.54,6.47,6.47,0,0,1,9.65,4.63a4.54,4.54,0,0,1,3.52-1.87A4.46,4.46,0,0,1,16.5,4.49a6.55,6.55,0,0,1,1.37,4.06,6.49,6.49,0,0,1-1.26,3.9,4.5,4.5,0,0,1-3.49,1.88Zm2.75-5.79c0-1.6-.57-5.61-2.74-5.61s-2.75,4-2.75,5.61.57,5.62,2.75,5.62,2.74-4,2.74-5.62ZM26.48,2.81V6.67h-.09a6.78,6.78,0,0,0-.81-2.17,3,3,0,0,0-2.26-1.67C21,2.83,20.8,7,20.8,8.56a11.74,11.74,0,0,0,.62,4.2,1.81,1.81,0,0,0,1.85,1.38,2.37,2.37,0,0,0,2-1.05,1,1,0,0,0,.12-.57v-3h-1V9.42h3.7v.12H27.2V14h-.07a1.17,1.17,0,0,0-1-.6,1.85,1.85,0,0,0-.91.27L25,13.8a4.18,4.18,0,0,1-1.73.44c-2.87,0-4.4-3.06-4.4-5.6a6.33,6.33,0,0,1,2.21-5,3.89,3.89,0,0,1,2.36-.91,2.81,2.81,0,0,1,1,.23l.23.09a2.44,2.44,0,0,0,.84.19,1.67,1.67,0,0,0,.93-.43ZM27.59,3h3.94v.11H30.48v8.57a2.45,2.45,0,0,0,2.59,2.16,2.27,2.27,0,0,0,2.4-2.24V3.11H34.23V3H44.42V7h-.08a5.2,5.2,0,0,0-1-3,3.38,3.38,0,0,0-2.75-.91h-1.1V8.22a5.07,5.07,0,0,0,.68,0c1.39,0,1.75-1,1.81-2.13H42v4.48h-.1c-.17-1.07-.65-2.22-1.9-2.22-.2,0-.4,0-.59,0v5.47H41.1a3.36,3.36,0,0,0,2.32-1,3.59,3.59,0,0,0,1-1.89,9.91,9.91,0,0,0,.12-1.21h.09V14h-8v-.11h.92V3.11h-2v8.53c0,1.76-1.68,2.54-3.24,2.54-1.78,0-3.74-.86-3.74-2.89V3.11H27.59V3Z"/></svg>